:SAMPLES-PER-SECOND 30
:FULLY-SPECIFIED
:DEGREES
321
root  -23.0458 5.86322 -17.5117 168.447 -2.92001 -175.57
RightUpLeg  -75.1791 -10.2173 -0.830105
RightLeg  162.022 6.46279 -2.29167
RightFoot  -60.5263 5.77077 10.4781
RightToes  -6.9528 0.00153515 -0.0405199
Spine  31.6976 0.537012 3.86583
Spine1  49.724 0.427949 4.96212
HEad  -88.5044 -3.15994 13.4665
LeftShoulder1  -1.94126e-019 -3.10601e-018 -2.51263e-017
LeftArm  37.6068 -70.8805 -130.413
LeftForeArm  29.6099 -5.65155 -0.97883
LeftHand  -0.496454 -0.698157 9.40978
RightShoulder  -4.96962e-017 0 -2.36833e-017
RightArm  15.3338 77.2039 113.312
RightForeArm  58.653 0.523137 0.0690336
RightHand  0.265653 -7.98163 -12.9939
LeftUpLeg  -79.776 7.04574 15.952
LeftLeg  163.547 -1.58089 0.581113
LeftFoot  -57.2328 -4.19305 -7.51576
LeftToes  -8.20838 2.03064e-006 1.83538e-008
322
root  -23.0428 5.86091 -17.5143 168.426 -2.92485 -175.605
RightUpLeg  -75.1378 -10.2257 -0.85745
RightLeg  162.043 6.44822 -2.28326
RightFoot  -60.5824 5.77305 10.4708
RightToes  -6.91724 0.0008032 -0.0416266
Spine  31.713 0.532892 3.85029
Spine1  49.7495 0.424246 4.94302
HEad  -88.3903 -2.79734 13.393
LeftShoulder1  -1.94126e-019 -3.10601e-018 -2.51263e-017
LeftArm  37.709 -70.9095 -130.471
LeftForeArm  29.7443 -5.45849 -0.944444
LeftHand  -0.497063 -0.768979 9.4237
RightShoulder  -4.96962e-017 0 -2.36833e-017
RightArm  15.2316 77.2109 113.155
RightForeArm  58.7285 0.330819 0.0348252
RightHand  0.251903 -7.93983 -12.7047
LeftUpLeg  -79.7375 7.04786 15.9463
LeftLeg  163.546 -1.56514 0.579095
LeftFoot  -57.2224 -4.18868 -7.50942
LeftToes  -8.22859 2.03064e-006 1.83538e-008
323
root  -23.0512 5.85664 -17.5333 168.21 -2.88361 -175.848
RightUpLeg  -74.7978 -10.1195 -1.21007
RightLeg  162.125 6.36584 -2.24039
RightFoot  -60.7526 5.80129 10.4853
RightToes  -6.8124 -8.08569e-005 -0.0429263
Spine  31.8696 0.544191 3.72986
Spine1  49.9916 0.528371 4.72064
HEad  -88.1583 -2.48204 13.3111
LeftShoulder1  -1.94126e-019 -3.10601e-018 -2.51263e-017
LeftArm  38.0607 -71.0478 -130.785
LeftForeArm  29.8502 -5.25505 -0.90839
LeftHand  -0.496437 -0.788111 9.45461
RightShoulder  -4.96962e-017 0 -2.36833e-017
RightArm  15.0605 77.2474 113.113
RightForeArm  58.7519 0.322153 0.0328174
RightHand  0.240474 -7.85703 -12.4887
LeftUpLeg  -79.2206 7.05116 15.7327
LeftLeg  163.536 -1.57715 0.581518
LeftFoot  -57.4451 -4.2079 -7.50915
LeftToes  -8.32432 2.03064e-006 1.83538e-008
324
root  -23.0513 5.84997 -17.5388 168.192 -2.88858 -175.864
RightUpLeg  -74.7342 -10.1331 -1.26982
RightLeg  162.152 6.3138 -2.21658
RightFoot  -60.8163 5.79634 10.4643
RightToes  -6.87133 -0.00112334 -0.0444271
Spine  31.9075 0.542271 3.7302
Spine1  50.0498 0.54011 4.7084
HEad  -87.7815 -2.33784 13.2387
LeftShoulder1  -1.94126e-019 -3.10601e-018 -2.51263e-017
LeftArm  38.248 -71.1069 -130.986
LeftForeArm  29.8225 -5.20103 -0.898937
LeftHand  -0.495107 -0.756522 9.47547
RightShoulder  -4.96962e-017 0 -2.36833e-017
RightArm  14.9553 77.3385 113.084
RightForeArm  58.6031 0.351962 0.0382476
RightHand  0.236804 -7.85556 -12.3349
LeftUpLeg  -79.1756 7.03653 15.7132
LeftLeg  163.557 -1.5955 0.587579
LeftFoot  -57.5023 -4.2269 -7.53461
LeftToes  -8.26892 2.03064e-006 1.83538e-008
325
root  -23.0704 5.85179 -17.5556 167.905 -2.99904 -176.066
RightUpLeg  -74.221 -10.1932 -1.75185
RightLeg  162.212 6.15838 -2.1483
RightFoot  -61.0565 5.82012 10.4573
RightToes  -6.73017 -0.00233064 -0.0461373
Spine  32.1485 0.482463 3.64458
Spine1  50.4574 0.557413 4.48652
HEad  -87.6638 -2.33489 13.134
LeftShoulder1  -1.94126e-019 -3.10601e-018 -2.51263e-017
LeftArm  38.9175 -71.3988 -131.796
LeftForeArm  29.963 -5.07767 -0.876767
LeftHand  -0.503408 -0.824221 9.53295
RightShoulder  -4.96962e-017 0 -2.36833e-017
RightArm  15.1763 77.6399 113.712
RightForeArm  58.7823 0.391069 0.0443717
RightHand  0.226216 -7.72361 -12.4761
LeftUpLeg  -78.7482 6.86955 15.3072
LeftLeg  163.535 -1.73557 0.639632
LeftFoot  -57.7087 -4.26718 -7.57484
LeftToes  -7.92453 2.03064e-006 1.83538e-008
326
root  -23.075 5.85028 -17.5593 167.904 -2.99046 -176.079
RightUpLeg  -74.1617 -10.1536 -1.85395
RightLeg  162.213 6.0879 -2.12064
RightFoot  -61.0136 5.79313 10.4199
RightToes  -7.24829 -0.00370917 -0.0480651
Spine  32.1761 0.485725 3.65022
Spine1  50.4888 0.57632 4.48083
HEad  -87.1459 -2.23401 12.9853
LeftShoulder1  -1.94126e-019 -3.10601e-018 -2.51263e-017
LeftArm  38.9823 -71.3852 -131.891
LeftForeArm  29.9307 -5.17606 -0.894217
LeftHand  -0.501011 -0.776516 9.55763
RightShoulder  -4.96962e-017 0 -2.36833e-017
RightArm  15.2018 77.7223 113.874
RightForeArm  58.7082 0.507759 0.0653741
RightHand  0.239094 -7.80998 -12.647
LeftUpLeg  -78.6851 6.8523 15.2746
LeftLeg  163.539 -1.76937 0.651895
LeftFoot  -57.7792 -4.29074 -7.60618
LeftToes  -7.79084 2.03064e-006 1.83538e-008
327
root  -23.0841 5.8519 -17.5651 167.884 -3.00192 -176.099
RightUpLeg  -74.0704 -10.1361 -1.95063
RightLeg  162.212 6.0817 -2.11827
RightFoot  -61.0538 5.80993 10.4405
RightToes  -7.2316 -0.00526533 -0.0502185
Spine  32.2168 0.47148 3.64242
Spine1  50.5472 0.581596 4.44038
HEad  -86.2378 -2.3095 12.6089
LeftShoulder1  -1.94126e-019 -3.10601e-018 -2.51263e-017
LeftArm  39.0977 -71.3883 -132.041
LeftForeArm  29.9696 -5.25731 -0.908417
LeftHand  -0.501409 -0.751603 9.63333
RightShoulder  -4.96962e-017 0 -2.36833e-017
RightArm  15.4387 77.8002 114.275
RightForeArm  58.5948 0.641582 0.0894149
RightHand  0.242655 -7.88952 -12.7702
LeftUpLeg  -78.5995 6.82051 15.1623
LeftLeg  163.545 -1.83974 0.677465
LeftFoot  -57.8854 -4.3246 -7.65028
LeftToes  -7.55501 2.03064e-006 1.83538e-008
328
root  -23.1279 5.86347 -17.5837 167.608 -3.30006 -176.353
RightUpLeg  -73.3912 -10.3521 -2.85951
RightLeg  162.257 5.70317 -1.96517
RightFoot  -61.2349 5.76908 10.3357
RightToes  -7.76955 -0.00700542 -0.0526059
Spine  32.4346 0.31679 3.56489
Spine1  50.8969 0.455193 4.19331
HEad  -85.6603 -2.17633 12.2424
LeftShoulder1  -1.94126e-019 -3.10601e-018 -2.51263e-017
LeftArm  39.4943 -71.5413 -132.567
LeftForeArm  30.1464 -5.24686 -0.906475
LeftHand  -0.506466 -0.778759 9.60519
RightShoulder  -4.96962e-017 0 -2.36833e-017
RightArm  15.5142 78.0665 115.222
RightForeArm  59.2951 0.52619 0.0675089
RightHand  0.242622 -7.84109 -12.8224
LeftUpLeg  -78.2503 6.41694 14.294
LeftLeg  163.496 -2.31681 0.854475
LeftFoot  -58.1503 -4.46353 -7.85698
LeftToes  -6.61127 2.03064e-006 1.83538e-008
